<svg width="114" height="83" viewBox="0 0 114 83" fill="none" xmlns="http://www.w3.org/2000/svg">
<path d="M111.964 26.9591L60.9194 0.690703C60.4728 0.460703 59.984 0.345703 59.4953 0.345703C59.0065 0.345703 58.5178 0.460703 58.0711 0.690703L7.02687 26.9601C5.96209 27.5084 5.30597 28.6194 5.33986 29.8166C5.37374 31.0138 6.09249 32.0858 7.18805 32.5713L13.7061 35.4649C13.6055 35.661 13.5244 35.8684 13.4659 36.085L9.25304 51.8071C9.10108 52.3759 9.11443 52.9663 9.28077 53.5146C8.54353 53.7775 7.85456 54.1492 7.23027 54.6225C6.56698 55.1246 5.99301 55.7273 5.5258 56.4132C5.0422 57.1227 4.68385 57.9062 4.46 58.7399C4.05854 60.24 4.1191 61.8048 4.6366 63.265C4.85018 63.8667 5.13459 64.4345 5.48269 64.9582L0.592232 76.639C0.245181 77.4676 0.272912 78.4051 0.669241 79.2122C1.06455 80.0182 1.78946 80.6147 2.6571 80.8468L9.74189 82.7453C10.0068 82.8162 10.2779 82.8511 10.5469 82.8511C11.1588 82.8511 11.7626 82.6704 12.2801 82.3233C13.0266 81.8233 13.5194 81.0245 13.6334 80.1332L15.2393 67.5715C15.803 67.2923 16.3328 66.9431 16.8185 66.5294C17.9973 65.5231 18.832 64.1985 19.2345 62.6985C19.5015 61.7025 19.5651 60.6819 19.4235 59.6664C19.2869 58.6869 18.9665 57.7546 18.4706 56.8951C18.2375 56.4916 17.9706 56.1137 17.6738 55.7636C18.0917 55.3714 18.3998 54.8672 18.5517 54.2984L22.5469 39.3894L25.9178 40.8864C26.3213 41.0661 26.7515 41.1544 27.1807 41.1544C27.2772 41.1544 27.3748 41.1493 27.4713 41.14V43.6167V51.4593C27.4713 52.5446 28.037 53.5518 28.9642 54.1165C29.4602 54.4183 30.0208 54.5703 30.5835 54.5703C31.0723 54.5703 31.562 54.4553 32.0107 54.2233C34.5531 52.911 37.2195 51.7775 39.9364 50.8545C45.7716 49.2538 52.0052 48.4436 58.4689 48.4426L58.473 48.4405V48.4416C65.2447 48.4416 72.2083 49.378 77.9912 51.0804C80.513 51.9696 82.966 53.0272 85.2823 54.2234C85.731 54.4554 86.2208 54.5694 86.7096 54.5694C87.2722 54.5694 87.8329 54.4174 88.3288 54.1145C89.256 53.5498 89.8218 52.5425 89.8218 51.4562V45.619V42.0591C89.9799 42.0837 90.1401 42.0971 90.3002 42.0971C90.7407 42.0971 91.1823 42.0036 91.595 41.8147L111.835 32.5543C112.918 32.0583 113.624 30.9874 113.651 29.7964C113.679 28.6074 113.024 27.5046 111.964 26.9594L111.964 26.9591ZM16.2258 61.8928C15.733 63.7307 14.1651 64.9976 12.3989 65.2184V65.2195L10.5445 79.7392L3.46077 77.8406L9.1143 64.3395L9.11533 64.3375C7.68399 63.2583 6.97346 61.3835 7.46529 59.5445C8.00846 57.5187 9.84128 56.1818 11.8434 56.1818C12.2316 56.1818 12.6259 56.2321 13.0191 56.3379C15.4392 56.9857 16.8737 59.4727 16.2257 61.8928L16.2258 61.8928ZM15.544 53.4927C15.045 53.1631 14.4967 53.0152 13.9494 52.8694C13.4586 52.738 12.9678 52.6065 12.4431 52.6065C12.3825 52.6065 12.3209 52.6086 12.2583 52.6117L16.4711 36.8897L19.6183 38.2871L15.544 53.4927ZM78.9478 48.1185C73.4401 46.489 66.2741 45.3309 58.4725 45.3309V45.335L58.4705 45.2786H58.4684C52.245 45.2786 45.5976 46.0384 39.0223 47.8527C36.1432 48.8261 33.3206 50.0316 30.5811 51.4465C30.5811 46.1544 30.5801 41.0595 30.5801 35.7676C39.3674 31.2323 49.0048 28.9683 58.6427 28.9683C68.2801 28.9683 77.9196 31.2375 86.708 35.7729C86.71 41.065 86.708 46.1681 86.709 51.4591C84.1852 50.1562 81.5925 49.0482 78.9487 48.119L78.9478 48.1185ZM90.299 38.9874L90.298 33.6953L88.4087 32.7496C79.337 28.0253 68.9439 25.5684 58.7374 25.5684C48.5309 25.5684 38.1381 28.0255 29.0661 32.7496L27.1768 33.6953L27.1758 38.0417L8.44614 29.7267L59.493 3.45833L110.537 29.7267L90.299 38.9874Z" fill="#9A9A9A"/>
</svg>
