<svg width="47" height="34" viewBox="0 0 47 34" fill="none" xmlns="http://www.w3.org/2000/svg">
<path d="M45.9036 11.0319L25.0976 0.324707C24.9155 0.230957 24.7163 0.184082 24.5171 0.184082C24.3178 0.184082 24.1186 0.230957 23.9366 0.324707L3.13049 11.0324C2.69648 11.2558 2.42904 11.7087 2.44285 12.1967C2.45666 12.6847 2.74963 13.1216 3.19619 13.3195L5.85301 14.499C5.812 14.5789 5.77893 14.6634 5.75508 14.7518L4.0379 21.1602C3.97596 21.392 3.9814 21.6327 4.0492 21.8562C3.7487 21.9633 3.46786 22.1148 3.2134 22.3078C2.94304 22.5124 2.70908 22.7581 2.51864 23.0377C2.32152 23.3269 2.17545 23.6462 2.08421 23.9861C1.92057 24.5975 1.94526 25.2354 2.1562 25.8305C2.24325 26.0758 2.35918 26.3072 2.50107 26.5207L0.507677 31.2819C0.366216 31.6196 0.377519 32.0018 0.539066 32.3307C0.700198 32.6593 0.995677 32.9024 1.34933 32.997L4.23716 33.7709C4.34513 33.7998 4.45563 33.814 4.56528 33.814C4.81472 33.814 5.06082 33.7403 5.27176 33.5989C5.57602 33.3951 5.77692 33.0694 5.82337 32.7062L6.47795 27.5859C6.70772 27.4721 6.92369 27.3298 7.12165 27.1611C7.60212 26.751 7.94238 26.2111 8.10644 25.5996C8.21525 25.1936 8.2412 24.7776 8.18345 24.3637C8.12778 23.9644 7.9972 23.5844 7.79505 23.2341C7.70005 23.0696 7.59124 22.9156 7.47028 22.7729C7.64062 22.613 7.76618 22.4075 7.82812 22.1757L9.45658 16.0986L10.8306 16.7088C10.9951 16.7821 11.1704 16.8181 11.3454 16.8181C11.3847 16.8181 11.4245 16.816 11.4638 16.8122V17.8217V21.0184C11.4638 21.4608 11.6944 21.8714 12.0724 22.1015C12.2745 22.2246 12.503 22.2865 12.7324 22.2865C12.9316 22.2865 13.1312 22.2396 13.3141 22.1451C14.3504 21.6102 15.4373 21.1481 16.5447 20.7719C18.9232 20.1194 21.4641 19.7892 24.0987 19.7888L24.1004 19.788V19.7884C26.8606 19.7884 29.699 20.1701 32.0562 20.864C33.0841 21.2264 34.084 21.6575 35.0281 22.1451C35.211 22.2397 35.4106 22.2861 35.6098 22.2861C35.8392 22.2861 36.0677 22.2242 36.2699 22.1007C36.6478 21.8705 36.8784 21.46 36.8784 21.0172V18.6379V17.1868C36.9429 17.1969 37.0081 17.2023 37.0734 17.2023C37.253 17.2023 37.433 17.1642 37.6012 17.0872L45.8512 13.3126C46.2928 13.1104 46.5803 12.6739 46.5916 12.1884C46.6029 11.7038 46.3359 11.2543 45.9039 11.032L45.9036 11.0319ZM6.88006 25.2712C6.67917 26.0204 6.04008 26.5368 5.32017 26.6268V26.6272L4.56431 32.5456L1.67692 31.7717L3.98135 26.2685L3.98176 26.2677C3.39834 25.8278 3.10872 25.0636 3.3092 24.314C3.5306 23.4883 4.27767 22.9434 5.09377 22.9434C5.25197 22.9434 5.41269 22.9639 5.57299 23.007C6.55945 23.2711 7.14413 24.2848 6.88002 25.2712L6.88006 25.2712ZM6.60216 21.8472C6.39876 21.7129 6.17526 21.6526 5.95219 21.5932C5.75213 21.5396 5.55207 21.4861 5.3382 21.4861C5.31351 21.4861 5.2884 21.4869 5.26287 21.4881L6.98005 15.0797L8.26287 15.6493L6.60216 21.8472ZM32.4461 19.6567C30.2011 18.9925 27.2802 18.5205 24.1002 18.5205V18.5221L24.0994 18.4991H24.0985C21.5618 18.4991 18.8523 18.8088 16.1721 19.5484C14.9986 19.9451 13.8481 20.4365 12.7314 21.0132C12.7314 18.8561 12.731 16.7794 12.731 14.6224C16.3128 12.7737 20.2411 11.8509 24.1696 11.8509C28.0978 11.8509 32.027 12.7758 35.6092 14.6245C35.61 16.7816 35.6092 18.8617 35.6096 21.0184C34.5809 20.4873 33.5241 20.0357 32.4464 19.6569L32.4461 19.6567ZM37.0729 15.9348L37.0725 13.7777L36.3024 13.3922C32.6047 11.4665 28.3684 10.4651 24.2081 10.4651C20.0479 10.4651 15.8117 11.4666 12.1139 13.3922L11.3438 13.7777L11.3434 15.5493L3.709 12.16L24.5161 1.45282L45.3222 12.16L37.0729 15.9348Z" fill="#9A9A9A"/>
</svg>
