<svg width="37" height="27" viewBox="0 0 37 27" fill="none" xmlns="http://www.w3.org/2000/svg">
<path d="M36.4547 8.77888L19.9699 0.2955C19.8257 0.221221 19.6678 0.184082 19.51 0.184082C19.3521 0.184082 19.1943 0.221221 19.05 0.2955L2.56529 8.77922C2.22142 8.95629 2.00952 9.31509 2.02047 9.70172C2.03141 10.0884 2.26353 10.4346 2.61734 10.5914L4.72236 11.5258C4.68986 11.5892 4.66366 11.6562 4.64476 11.7261L3.28423 16.8036C3.23516 16.9873 3.23947 17.1779 3.29319 17.355C3.0551 17.4399 2.83259 17.5599 2.63098 17.7128C2.41677 17.875 2.2314 18.0696 2.08052 18.2911C1.92434 18.5202 1.80861 18.7733 1.73632 19.0425C1.60666 19.527 1.62622 20.0323 1.79335 20.5039C1.86232 20.6982 1.95417 20.8816 2.06659 21.0507L0.487219 24.823C0.375139 25.0906 0.384095 25.3934 0.512089 25.654C0.639755 25.9143 0.873864 26.107 1.15407 26.182L3.4421 26.7951C3.52766 26.818 3.6152 26.8292 3.70208 26.8292C3.89971 26.8292 4.09469 26.7709 4.26183 26.6588C4.5029 26.4973 4.66206 26.2393 4.69887 25.9515L5.2175 21.8947C5.39954 21.8045 5.57066 21.6918 5.7275 21.5581C6.10818 21.2332 6.37777 20.8054 6.50776 20.3209C6.59397 19.9993 6.61453 19.6697 6.56877 19.3417C6.52467 19.0254 6.42121 18.7243 6.26104 18.4467C6.18577 18.3164 6.09956 18.1944 6.00373 18.0813C6.13868 17.9546 6.23817 17.7918 6.28724 17.6081L7.57748 12.7933L8.66611 13.2767C8.79643 13.3348 8.93537 13.3633 9.07398 13.3633C9.10515 13.3633 9.13665 13.3616 9.16783 13.3586V14.1585V16.6912C9.16783 17.0417 9.35053 17.367 9.64997 17.5494C9.81014 17.6469 9.99119 17.696 10.1729 17.696C10.3308 17.696 10.4889 17.6588 10.6338 17.5839C11.4549 17.1601 12.316 16.794 13.1934 16.4959C15.0779 15.979 17.0911 15.7173 19.1785 15.717L19.1798 15.7163V15.7167C21.3668 15.7167 23.6157 16.0191 25.4832 16.5689C26.2977 16.856 27.0899 17.1976 27.8379 17.5839C27.9828 17.6588 28.141 17.6956 28.2988 17.6956C28.4806 17.6956 28.6616 17.6466 28.8218 17.5487C29.1212 17.3664 29.3039 17.0411 29.3039 16.6903V14.8051V13.6554C29.355 13.6634 29.4067 13.6677 29.4585 13.6677C29.6007 13.6677 29.7433 13.6375 29.8766 13.5765L36.4131 10.5859C36.763 10.4257 36.9908 10.0798 36.9997 9.69519C37.0087 9.3112 36.7971 8.95505 36.4549 8.77897L36.4547 8.77888ZM5.53609 20.0607C5.37693 20.6543 4.87057 21.0635 4.30018 21.1348V21.1351L3.70131 25.8242L1.41361 25.2111L3.23942 20.8509L3.23976 20.8502C2.77751 20.5017 2.54804 19.8963 2.70688 19.3024C2.88229 18.6481 3.4742 18.2164 4.1208 18.2164C4.24615 18.2164 4.37349 18.2326 4.50049 18.2668C5.28207 18.476 5.74531 19.2792 5.53606 20.0608L5.53609 20.0607ZM5.31591 17.3479C5.15475 17.2415 4.97767 17.1937 4.80093 17.1466C4.64242 17.1042 4.48392 17.0617 4.31447 17.0617C4.29491 17.0617 4.27501 17.0624 4.25478 17.0634L5.61531 11.986L6.6317 12.4373L5.31591 17.3479ZM25.7922 15.6123C24.0135 15.0861 21.6992 14.7121 19.1797 14.7121V14.7134L19.179 14.6952H19.1784C17.1685 14.6952 15.0217 14.9406 12.8982 15.5265C11.9684 15.8409 11.0569 16.2302 10.1721 16.6871C10.1721 14.978 10.1718 13.3326 10.1718 11.6236C13.0097 10.1589 16.1221 9.42776 19.2347 9.42776C22.3471 9.42776 25.4601 10.1606 28.2983 11.6253C28.299 13.3344 28.2983 14.9824 28.2987 16.6912C27.4836 16.2704 26.6463 15.9126 25.7925 15.6125L25.7922 15.6123ZM29.4581 12.6634L29.4577 10.9544L28.8476 10.6489C25.9179 9.12322 22.5614 8.32975 19.2652 8.32975C15.969 8.32975 12.6127 9.12328 9.68286 10.6489L9.07271 10.9544L9.07238 12.358L3.02364 9.67269L19.5092 1.18931L35.994 9.67269L29.4581 12.6634Z" fill="#9A9A9A"/>
</svg>
