<svg width="12" height="19" viewBox="0 0 12 19" fill="none" xmlns="http://www.w3.org/2000/svg">
<path d="M11.5011 15.7102L3.43722 9.01443L11.5011 2.36296C12.0741 1.88158 12.162 1.05005 11.6773 0.481391C11.4129 0.174914 11.0164 1.92617e-06 10.6196 1.85679e-06C10.311 1.80284e-06 10.0027 0.0876105 9.7384 0.306479L0.48473 8.00805C0.176125 8.27057 -1.50729e-06 8.62069 -1.58382e-06 9.0584C-1.66036e-06 9.49614 0.176125 9.84594 0.48473 10.1087L9.78246 17.8106C10.0468 18.0295 10.3111 18.1171 10.6637 18.1171C11.0602 18.1171 11.4567 17.9422 11.7213 17.6357C12.1621 17.0228 12.0741 16.1913 11.5011 15.7102Z" fill="#71AAFF"/>
</svg>
