<svg width="23" height="34" viewBox="0 0 23 34" fill="none" xmlns="http://www.w3.org/2000/svg">
<path d="M21.7831 29.3115L6.73776 16.8188L21.7831 4.40873C22.8521 3.51057 23.0161 1.95915 22.1117 0.898158C21.6185 0.326345 20.8787 0 20.1384 0C19.5626 0 18.9874 0.163457 18.4943 0.571814L1.2291 14.9411C0.653318 15.4309 0.324707 16.0842 0.324707 16.9008C0.324707 17.7176 0.653318 18.3702 1.2291 18.8605L18.5765 33.2304C19.0697 33.6388 19.5629 33.8023 20.2206 33.8023C20.9604 33.8023 21.7002 33.4759 22.1939 32.9041C23.0163 31.7605 22.8521 30.2092 21.7831 29.3115Z" fill="#71AAFF"/>
</svg>
