<svg width="23" height="34" viewBox="0 0 23 34" fill="none" xmlns="http://www.w3.org/2000/svg">
<path d="M0.931239 4.49071L15.9766 16.9834L0.931237 29.3935C-0.137736 30.2917 -0.301755 31.8431 0.602625 32.9041C1.09583 33.4759 1.83562 33.8022 2.57593 33.8022C3.15172 33.8022 3.72692 33.6388 4.22009 33.2304L21.4853 18.8611C22.061 18.3713 22.3896 17.7181 22.3896 16.9014C22.3896 16.0847 22.061 15.432 21.4853 14.9417L4.13788 0.571799C3.64467 0.163442 3.15147 -1.69406e-05 2.49372 -1.69981e-05C1.75392 -1.70628e-05 1.01414 0.326329 0.520412 0.898142C-0.301974 2.04177 -0.137748 3.59302 0.931239 4.49071Z" fill="#71AAFF"/>
</svg>
