<svg width="12" height="19" viewBox="0 0 12 19" fill="none" xmlns="http://www.w3.org/2000/svg">
<path d="M0.498866 2.40699L8.56277 9.10276L0.498865 15.7542C-0.0740752 16.2356 -0.161986 17.0671 0.322738 17.6358C0.587081 17.9423 0.983588 18.1172 1.38038 18.1172C1.68898 18.1172 1.99727 18.0296 2.2616 17.8107L11.5153 10.1091C11.8239 9.84662 12 9.49649 12 9.05879C12 8.62105 11.8239 8.27125 11.5153 8.00844L2.21754 0.306555C1.95319 0.0876862 1.68885 7.66801e-05 1.33632 7.66492e-05C0.939801 7.66146e-05 0.543301 0.174989 0.278674 0.481466C-0.162103 1.09442 -0.0740818 1.92585 0.498866 2.40699Z" fill="#71AAFF"/>
</svg>
