<svg width="16" height="22" viewBox="0 0 16 22" fill="none" xmlns="http://www.w3.org/2000/svg">
<path d="M1.57449 2.89648L11.2787 10.9542L1.57449 18.9586C0.885007 19.5379 0.779215 20.5386 1.36254 21.2229C1.68065 21.5918 2.15781 21.8022 2.63531 21.8022C3.00669 21.8022 3.37768 21.6968 3.69578 21.4334L14.8317 12.1653C15.2031 11.8494 15.415 11.428 15.415 10.9013C15.415 10.3745 15.2031 9.95357 14.8317 9.63731L3.64275 0.3688C3.32464 0.105412 3.00653 -1.74858e-05 2.58228 -1.75229e-05C2.10511 -1.75646e-05 1.62796 0.210474 1.30951 0.57929C0.779074 1.31692 0.884999 2.31747 1.57449 2.89648Z" fill="#71AAFF"/>
</svg>
