<svg width="15" height="22" viewBox="0 0 15 22" fill="none" xmlns="http://www.w3.org/2000/svg">
<path d="M13.8405 18.9058L4.13638 10.848L13.8406 2.84361C14.53 2.2643 14.6358 1.26364 14.0525 0.579309C13.7344 0.210493 13.2572 2.31797e-06 12.7797 2.23448e-06C12.4084 2.16955e-06 12.0374 0.105431 11.7193 0.368819L0.583328 9.63695C0.21195 9.95287 -1.81388e-06 10.3742 -1.90598e-06 10.9009C-1.99809e-06 11.4277 0.21195 11.8487 0.583328 12.1649L11.7723 21.4334C12.0904 21.6968 12.4085 21.8023 12.8328 21.8023C13.3099 21.8023 13.7871 21.5918 14.1055 21.223C14.636 20.4853 14.53 19.4848 13.8405 18.9058Z" fill="#71AAFF"/>
</svg>
