<svg width="31" height="31" viewBox="0 0 31 31" fill="none" xmlns="http://www.w3.org/2000/svg">
<path d="M15.5002 1.24023C7.62623 1.24023 1.24023 7.62623 1.24023 15.5002C1.24023 23.3742 7.62623 29.7602 15.5002 29.7602C23.3742 29.7602 29.7602 23.3742 29.7602 15.5002C29.7602 7.62623 23.3742 1.24023 15.5002 1.24023ZM11.7802 21.7002C11.7802 22.0102 11.4702 22.3202 11.1602 22.3202H8.68023C8.37023 22.3202 8.06023 22.0102 8.06023 21.7002V12.4002C8.06023 12.0902 8.37023 11.7802 8.68023 11.7802H11.1602C11.4702 11.7802 11.7802 12.0902 11.7802 12.4002V21.7002ZM9.92023 11.1602C8.92823 11.1602 8.06023 10.2922 8.06023 9.30023C8.06023 8.30823 8.92823 7.44023 9.92023 7.44023C10.9122 7.44023 11.7802 8.30823 11.7802 9.30023C11.7802 10.2922 10.9122 11.1602 9.92023 11.1602ZM23.5602 21.7002C23.5602 22.0102 23.2502 22.3202 22.9402 22.3202H20.4602C20.1502 22.3202 19.8402 22.0102 19.8402 21.7002V17.0502C19.8402 16.1822 19.1582 15.5002 18.2902 15.5002C17.4222 15.5002 16.7402 16.1822 16.7402 17.0502V21.7002C16.7402 22.0102 16.4302 22.3202 16.1202 22.3202H13.6402C13.3302 22.3202 13.0202 22.0102 13.0202 21.7002V12.4002C13.0202 12.0902 13.3302 11.7802 13.6402 11.7802H16.1202C16.4302 11.7802 16.7402 12.0282 16.7402 12.4002C17.4222 12.0282 18.1042 11.7802 18.9102 11.7802C21.4522 11.7802 23.5602 13.8882 23.5602 16.4302V21.7002Z" fill="url(#paint0_linear_165_8)"/>
<defs>
<linearGradient id="paint0_linear_165_8" x1="1.24023" y1="17.5374" x2="29.7602" y2="17.5206" gradientUnits="userSpaceOnUse">
<stop stop-color="#5096FF"/>
<stop offset="1" stop-color="#2368CF"/>
</linearGradient>
</defs>
</svg>
