<svg width="31" height="31" viewBox="0 0 31 31" fill="none" xmlns="http://www.w3.org/2000/svg">
<path d="M15.5002 2.5835C8.36371 2.5835 2.5835 8.3637 2.5835 15.5002C2.58203 18.2117 3.43447 20.8549 5.01986 23.0547C6.60525 25.2545 8.8431 26.8992 11.4159 27.7555C12.0617 27.8679 12.3033 27.4804 12.3033 27.1407C12.3033 26.8345 12.2865 25.818 12.2865 24.7356C9.04183 25.3336 8.20225 23.9451 7.94391 23.2179C7.79796 22.8459 7.16891 21.7002 6.61996 21.3927C6.16787 21.1512 5.52204 20.5532 6.60316 20.5377C7.621 20.5209 8.34691 21.4741 8.58975 21.8616C9.75225 23.8146 11.6097 23.2657 12.3511 22.9272C12.4647 22.0877 12.8032 21.5232 13.1752 21.2003C10.3012 20.8774 7.29808 19.7627 7.29808 14.822C7.29808 13.4167 7.79796 12.2555 8.62204 11.35C8.49287 11.0271 8.04079 9.70316 8.75121 7.92712C8.75121 7.92712 9.83233 7.5887 12.3033 9.25237C13.3548 8.96053 14.4412 8.81365 15.5325 8.81579C16.6304 8.81579 17.7283 8.96045 18.7616 9.25108C21.2313 7.57191 22.3137 7.92841 22.3137 7.92841C23.0241 9.70445 22.572 11.0284 22.4429 11.3513C23.2657 12.2555 23.7668 13.4012 23.7668 14.822C23.7668 19.7795 20.7482 20.8774 17.8742 21.2003C18.3418 21.6033 18.7461 22.3783 18.7461 23.5899C18.7461 25.3168 18.7293 26.7054 18.7293 27.142C18.7293 27.4804 18.9722 27.8834 19.618 27.7542C22.182 26.8885 24.41 25.2406 25.9884 23.0424C27.5668 20.8442 28.4161 18.2064 28.4168 15.5002C28.4168 8.3637 22.6366 2.5835 15.5002 2.5835Z" fill="url(#paint0_linear_165_5)"/>
<defs>
<linearGradient id="paint0_linear_165_5" x1="2.5835" y1="16.9809" x2="28.4168" y2="16.9653" gradientUnits="userSpaceOnUse">
<stop stop-color="#5096FF"/>
<stop offset="1" stop-color="#2368CF"/>
</linearGradient>
</defs>
</svg>
