<svg width="31" height="31" viewBox="0 0 31 31" fill="none" xmlns="http://www.w3.org/2000/svg">
<path d="M15.2458 3.875C8.96572 3.875 3.875 8.96572 3.875 15.2458C3.875 20.921 8.03331 25.6251 13.4697 26.4791V18.532H10.5815V15.2458H13.4697V12.7408C13.4697 9.89131 15.1662 8.31759 17.7645 8.31759C19.0084 8.31759 20.3093 8.53932 20.3093 8.53932V11.3365H18.8765C17.4632 11.3365 17.0231 12.2132 17.0231 13.1127V15.2458H20.1762L19.6725 18.532H17.0231V26.4791C22.4584 25.6263 26.6167 20.9199 26.6167 15.2458C26.6167 8.96572 21.526 3.875 15.2458 3.875Z" fill="url(#paint0_linear_158_11)"/>
<defs>
<linearGradient id="paint0_linear_158_11" x1="3.875" y1="16.7916" x2="26.6167" y2="16.7782" gradientUnits="userSpaceOnUse">
<stop stop-color="#5096FF"/>
<stop offset="1" stop-color="#2368CF"/>
</linearGradient>
</defs>
</svg>
