<svg width="31" height="31" viewBox="0 0 31 31" fill="none" xmlns="http://www.w3.org/2000/svg">
<path d="M10.3333 3.875C6.77221 3.875 3.875 6.77221 3.875 10.3333V20.6667C3.875 24.2278 6.77221 27.125 10.3333 27.125H20.6667C24.2278 27.125 27.125 24.2278 27.125 20.6667V10.3333C27.125 6.77221 24.2278 3.875 20.6667 3.875H10.3333ZM10.3333 6.45833H20.6667C22.8031 6.45833 24.5417 8.19692 24.5417 10.3333V20.6667C24.5417 22.8031 22.8031 24.5417 20.6667 24.5417H10.3333C8.19692 24.5417 6.45833 22.8031 6.45833 20.6667V10.3333C6.45833 8.19692 8.19692 6.45833 10.3333 6.45833ZM21.9583 7.75C21.6158 7.75 21.2872 7.88609 21.045 8.12832C20.8028 8.37055 20.6667 8.6991 20.6667 9.04167C20.6667 9.38424 20.8028 9.71278 21.045 9.95501C21.2872 10.1972 21.6158 10.3333 21.9583 10.3333C22.3009 10.3333 22.6294 10.1972 22.8717 9.95501C23.1139 9.71278 23.25 9.38424 23.25 9.04167C23.25 8.6991 23.1139 8.37055 22.8717 8.12832C22.6294 7.88609 22.3009 7.75 21.9583 7.75ZM15.5 9.04167C11.9389 9.04167 9.04167 11.9389 9.04167 15.5C9.04167 19.0611 11.9389 21.9583 15.5 21.9583C19.0611 21.9583 21.9583 19.0611 21.9583 15.5C21.9583 11.9389 19.0611 9.04167 15.5 9.04167ZM15.5 11.625C17.6364 11.625 19.375 13.3636 19.375 15.5C19.375 17.6364 17.6364 19.375 15.5 19.375C13.3636 19.375 11.625 17.6364 11.625 15.5C11.625 13.3636 13.3636 11.625 15.5 11.625Z" fill="url(#paint0_linear_40_142)"/>
<defs>
<linearGradient id="paint0_linear_40_142" x1="3.875" y1="17.1607" x2="27.125" y2="17.1471" gradientUnits="userSpaceOnUse">
<stop stop-color="#5096FF"/>
<stop offset="1" stop-color="#2368CF"/>
</linearGradient>
</defs>
</svg>
