<svg width="31" height="31" viewBox="0 0 31 31" fill="none" xmlns="http://www.w3.org/2000/svg">
<path d="M10.6561 3.229C6.56086 3.229 3.229 6.56086 3.229 10.6561V20.3436C3.229 24.4388 6.56086 27.7707 10.6561 27.7707H20.3436C24.4388 27.7707 27.7707 24.4388 27.7707 20.3436V10.6561C27.7707 6.56086 24.4388 3.229 20.3436 3.229H10.6561ZM21.9582 7.74984C22.6718 7.74984 23.2498 8.32786 23.2498 9.0415C23.2498 9.7545 22.6718 10.3332 21.9582 10.3332C21.2445 10.3332 20.6665 9.7545 20.6665 9.0415C20.6665 8.32786 21.2445 7.74984 21.9582 7.74984ZM15.4998 9.0415C19.061 9.0415 21.9582 11.9387 21.9582 15.4998C21.9582 19.061 19.061 21.9582 15.4998 21.9582C11.9387 21.9582 9.0415 19.061 9.0415 15.4998C9.0415 11.9387 11.9387 9.0415 15.4998 9.0415ZM15.4998 10.979C14.9062 10.979 14.3183 11.0959 13.7698 11.3231C13.2213 11.5503 12.7229 11.8833 12.3031 12.3031C11.8833 12.7229 11.5503 13.2213 11.3231 13.7698C11.0959 14.3183 10.979 14.9062 10.979 15.4998C10.979 16.0935 11.0959 16.6814 11.3231 17.2299C11.5503 17.7784 11.8833 18.2768 12.3031 18.6965C12.7229 19.1163 13.2213 19.4493 13.7698 19.6765C14.3183 19.9037 14.9062 20.0207 15.4998 20.0207C16.0935 20.0207 16.6814 19.9037 17.2299 19.6765C17.7784 19.4493 18.2768 19.1163 18.6965 18.6965C19.1163 18.2768 19.4493 17.7784 19.6765 17.2299C19.9037 16.6814 20.0207 16.0935 20.0207 15.4998C20.0207 14.9062 19.9037 14.3183 19.6765 13.7698C19.4493 13.2213 19.1163 12.7229 18.6965 12.3031C18.2768 11.8833 17.7784 11.5503 17.2299 11.3231C16.6814 11.0959 16.0935 10.979 15.4998 10.979V10.979Z" fill="url(#paint0_linear_165_9)"/>
<defs>
<linearGradient id="paint0_linear_165_9" x1="3.229" y1="17.2528" x2="27.7707" y2="17.2384" gradientUnits="userSpaceOnUse">
<stop stop-color="#5096FF"/>
<stop offset="1" stop-color="#2368CF"/>
</linearGradient>
</defs>
</svg>
