<svg width="189" height="28" viewBox="0 0 189 28" fill="none" xmlns="http://www.w3.org/2000/svg">
<path d="M6.7644 6.66011V11.7721H15.0084V16.5241H6.7644V22.0681H16.0884V27.0001H0.608398V1.72811H16.0884V6.66011H6.7644Z" fill="white"/>
<path d="M28.617 27.2881C26.865 27.2881 25.305 26.9881 23.937 26.3881C22.569 25.7881 21.489 24.9721 20.697 23.9401C19.905 22.8841 19.461 21.7081 19.365 20.4121H25.449C25.521 21.1081 25.845 21.6721 26.421 22.1041C26.997 22.5361 27.705 22.7521 28.545 22.7521C29.313 22.7521 29.901 22.6081 30.309 22.3201C30.741 22.0081 30.957 21.6121 30.957 21.1321C30.957 20.5561 30.657 20.1361 30.057 19.8721C29.457 19.5841 28.485 19.2721 27.141 18.9361C25.701 18.6001 24.501 18.2521 23.541 17.8921C22.581 17.5081 21.753 16.9201 21.057 16.1281C20.361 15.3121 20.013 14.2201 20.013 12.8521C20.013 11.7001 20.325 10.6561 20.949 9.72011C21.597 8.76011 22.533 8.00411 23.757 7.45211C25.005 6.90011 26.481 6.62411 28.185 6.62411C30.705 6.62411 32.685 7.24811 34.125 8.49611C35.589 9.74411 36.429 11.4001 36.645 13.4641H30.957C30.861 12.7681 30.549 12.2161 30.021 11.8081C29.517 11.4001 28.845 11.1961 28.005 11.1961C27.285 11.1961 26.733 11.3401 26.349 11.6281C25.965 11.8921 25.773 12.2641 25.773 12.7441C25.773 13.3201 26.073 13.7521 26.673 14.0401C27.297 14.3281 28.257 14.6161 29.553 14.9041C31.041 15.2881 32.253 15.6721 33.189 16.0561C34.125 16.4161 34.941 17.0161 35.637 17.8561C36.357 18.6721 36.729 19.7761 36.753 21.1681C36.753 22.3441 36.417 23.4001 35.745 24.3361C35.097 25.2481 34.149 25.9681 32.901 26.4961C31.677 27.0241 30.249 27.2881 28.617 27.2881Z" fill="white"/>
<path d="M52.0752 21.7801V27.0001H48.9432C46.7112 27.0001 44.9712 26.4601 43.7232 25.3801C42.4752 24.2761 41.8512 22.4881 41.8512 20.0161V12.0241H39.4032V6.91211H41.8512V2.01611H48.0072V6.91211H52.0392V12.0241H48.0072V20.0881C48.0072 20.6881 48.1512 21.1201 48.4392 21.3841C48.7272 21.6481 49.2072 21.7801 49.8792 21.7801H52.0752Z" fill="white"/>
<path d="M75.7002 6.91211V27.0001H69.5442V24.2641C68.9202 25.1521 68.0682 25.8721 66.9882 26.4241C65.9322 26.9521 64.7562 27.2161 63.4602 27.2161C61.9242 27.2161 60.5682 26.8801 59.3922 26.2081C58.2162 25.5121 57.3042 24.5161 56.6562 23.2201C56.0082 21.9241 55.6842 20.4001 55.6842 18.6481V6.91211H61.8042V17.8201C61.8042 19.1641 62.1522 20.2081 62.8482 20.9521C63.5442 21.6961 64.4802 22.0681 65.6562 22.0681C66.8562 22.0681 67.8042 21.6961 68.5002 20.9521C69.1962 20.2081 69.5442 19.1641 69.5442 17.8201V6.91211H75.7002Z" fill="white"/>
<path d="M79.258 16.9201C79.258 14.8561 79.642 13.0441 80.41 11.4841C81.202 9.92411 82.27 8.72411 83.614 7.88411C84.958 7.04411 86.458 6.62411 88.114 6.62411C89.434 6.62411 90.634 6.90011 91.714 7.45211C92.818 8.00411 93.682 8.74811 94.306 9.68411V0.360107H100.462V27.0001H94.306V24.1201C93.73 25.0801 92.902 25.8481 91.822 26.4241C90.766 27.0001 89.53 27.2881 88.114 27.2881C86.458 27.2881 84.958 26.8681 83.614 26.0281C82.27 25.1641 81.202 23.9521 80.41 22.3921C79.642 20.8081 79.258 18.9841 79.258 16.9201ZM94.306 16.9561C94.306 15.4201 93.874 14.2081 93.01 13.3201C92.17 12.4321 91.138 11.9881 89.914 11.9881C88.69 11.9881 87.646 12.4321 86.782 13.3201C85.942 14.1841 85.522 15.3841 85.522 16.9201C85.522 18.4561 85.942 19.6801 86.782 20.5921C87.646 21.4801 88.69 21.9241 89.914 21.9241C91.138 21.9241 92.17 21.4801 93.01 20.5921C93.874 19.7041 94.306 18.4921 94.306 16.9561Z" fill="white"/>
<path d="M104.052 16.9201C104.052 14.8561 104.436 13.0441 105.204 11.4841C105.996 9.92411 107.064 8.72411 108.408 7.88411C109.752 7.04411 111.252 6.62411 112.908 6.62411C114.324 6.62411 115.56 6.91211 116.616 7.48811C117.696 8.06411 118.524 8.82011 119.1 9.75611V6.91211H125.256V27.0001H119.1V24.1561C118.5 25.0921 117.66 25.8481 116.58 26.4241C115.524 27.0001 114.288 27.2881 112.872 27.2881C111.24 27.2881 109.752 26.8681 108.408 26.0281C107.064 25.1641 105.996 23.9521 105.204 22.3921C104.436 20.8081 104.052 18.9841 104.052 16.9201ZM119.1 16.9561C119.1 15.4201 118.668 14.2081 117.804 13.3201C116.964 12.4321 115.932 11.9881 114.708 11.9881C113.484 11.9881 112.44 12.4321 111.576 13.3201C110.736 14.1841 110.316 15.3841 110.316 16.9201C110.316 18.4561 110.736 19.6801 111.576 20.5921C112.44 21.4801 113.484 21.9241 114.708 21.9241C115.932 21.9241 116.964 21.4801 117.804 20.5921C118.668 19.7041 119.1 18.4921 119.1 16.9561Z" fill="white"/>
<path d="M142.309 6.69611C144.661 6.69611 146.533 7.46411 147.925 9.00011C149.341 10.5121 150.049 12.6001 150.049 15.2641V27.0001H143.929V16.0921C143.929 14.7481 143.581 13.7041 142.885 12.9601C142.189 12.2161 141.253 11.8441 140.077 11.8441C138.901 11.8441 137.965 12.2161 137.269 12.9601C136.573 13.7041 136.225 14.7481 136.225 16.0921V27.0001H130.069V6.91211H136.225V9.57611C136.849 8.68811 137.689 7.99211 138.745 7.48811C139.801 6.96011 140.989 6.69611 142.309 6.69611Z" fill="white"/>
<path d="M165.883 21.7801V27.0001H162.751C160.519 27.0001 158.779 26.4601 157.531 25.3801C156.283 24.2761 155.659 22.4881 155.659 20.0161V12.0241H153.211V6.91211H155.659V2.01611H161.815V6.91211H165.847V12.0241H161.815V20.0881C161.815 20.6881 161.959 21.1201 162.247 21.3841C162.535 21.6481 163.015 21.7801 163.687 21.7801H165.883Z" fill="white"/>
<path d="M188.608 16.6321C188.608 17.2081 188.572 17.8081 188.5 18.4321H174.568C174.664 19.6801 175.06 20.6401 175.756 21.3121C176.476 21.9601 177.352 22.2841 178.384 22.2841C179.92 22.2841 180.988 21.6361 181.588 20.3401H188.14C187.804 21.6601 187.192 22.8481 186.304 23.9041C185.44 24.9601 184.348 25.7881 183.028 26.3881C181.708 26.9881 180.232 27.2881 178.6 27.2881C176.632 27.2881 174.88 26.8681 173.344 26.0281C171.808 25.1881 170.608 23.9881 169.744 22.4281C168.88 20.8681 168.448 19.0441 168.448 16.9561C168.448 14.8681 168.868 13.0441 169.708 11.4841C170.572 9.92411 171.772 8.72411 173.308 7.88411C174.844 7.04411 176.608 6.62411 178.6 6.62411C180.544 6.62411 182.272 7.03211 183.784 7.84811C185.296 8.66411 186.472 9.82811 187.312 11.3401C188.176 12.8521 188.608 14.6161 188.608 16.6321ZM182.308 15.0121C182.308 13.9561 181.948 13.1161 181.228 12.4921C180.508 11.8681 179.608 11.5561 178.528 11.5561C177.496 11.5561 176.62 11.8561 175.9 12.4561C175.204 13.0561 174.772 13.9081 174.604 15.0121H182.308Z" fill="white"/>
</svg>
